<svg xmlns="http://www.w3.org/2000/svg" viewBox="0 0 200 120">
  <!-- Body -->
  <ellipse cx="100" cy="75" rx="45" ry="22" fill="#D32F2F" opacity="0.15"/>
  <!-- Rear wheel -->
  <circle cx="55" cy="88" r="24" fill="none" stroke="#212121" stroke-width="6"/>
  <circle cx="55" cy="88" r="10" fill="#424242"/>
  <circle cx="55" cy="88" r="4" fill="#9E9E9E"/>
  <!-- Front wheel -->
  <circle cx="145" cy="88" r="24" fill="none" stroke="#212121" stroke-width="6"/>
  <circle cx="145" cy="88" r="10" fill="#424242"/>
  <circle cx="145" cy="88" r="4" fill="#9E9E9E"/>
  <!-- Frame -->
  <line x1="55" y1="88" x2="100" y2="58" stroke="#B71C1C" stroke-width="5" stroke-linecap="round"/>
  <line x1="100" y1="58" x2="145" y2="88" stroke="#B71C1C" stroke-width="5" stroke-linecap="round"/>
  <line x1="55" y1="88" x2="85" y2="60" stroke="#616161" stroke-width="4" stroke-linecap="round"/>
  <!-- Tank / body -->
  <path d="M82,55 Q100,38 120,52 L115,70 Q100,75 85,70 Z" fill="#E53935" stroke="#B71C1C" stroke-width="1.5"/>
  <!-- Seat -->
  <path d="M85,70 Q100,65 115,70 L118,62 Q100,58 82,62 Z" fill="#212121"/>
  <!-- Engine block -->
  <rect x="82" y="70" width="36" height="16" rx="4" fill="#9E9E9E" stroke="#616161" stroke-width="1"/>
  <!-- Exhaust -->
  <path d="M55,80 Q40,85 35,90" stroke="#757575" stroke-width="4" stroke-linecap="round" fill="none"/>
  <!-- Fork -->
  <line x1="120" y1="52" x2="135" y2="78" stroke="#9E9E9E" stroke-width="5" stroke-linecap="round"/>
  <line x1="125" y1="52" x2="140" y2="78" stroke="#757575" stroke-width="3" stroke-linecap="round"/>
  <!-- Headlight -->
  <ellipse cx="149" cy="66" rx="7" ry="5" fill="#FFF9C4" stroke="#FDD835" stroke-width="1.5"/>
  <!-- Handlebar -->
  <line x1="120" y1="50" x2="130" y2="42" stroke="#424242" stroke-width="4" stroke-linecap="round"/>
  <!-- Rider suggestion -->
</svg>
